<svg width="190" height="30" xmlns="http://www.w3.org/2000/svg" xml:space="preserve" version="1.1" fill="#F7933A">
<g>
  <path  class="fil0" d="m8.20655,1.07808l-7.5399,0l0.47814,1.11259l12.3213,27.9528l3.10791,0l9.60877,-22.02202l1.16776,-2.68494l1.42522,-3.24583l0,-1.11259l-7.06176,0l-6.57442,16.25676l-0.20229,0l-6.73074,-16.25676zm48.77027,28.73437l7.7238,0l-0.5425,-1.06662l-12.96495,-28.03555l-3.16308,0l-12.92817,28.03555l0,1.06662l7.18129,0l1.68268,-3.61363l11.32824,0l1.68268,3.61363zm-4.06419,-9.89382l-6.56523,0l3.24583,-7.54909l3.31939,7.54909z" fill="#2D5173" id="svg_2"/>
  <path  class="fil0" d="m62.76967,14.98092c0.04598,9.77428 7.42956,14.6936 14.73959,14.65682c6.11467,0 12.56036,-3.19986 13.62698,-11.32823l-7.22726,0c-0.78158,3.08032 -3.28262,4.63427 -6.39972,4.63427c-4.34924,-0.03678 -7.14452,-3.73316 -7.14452,-7.96286c0,-4.75382 2.83206,-7.99965 7.14452,-7.99965c3.08032,0 5.25034,1.31488 6.28018,4.2297l7.22727,0c-1.1126,-7.67783 -7.55829,-10.92366 -13.50745,-10.92366c-7.31003,0 -14.69361,4.92852 -14.73959,14.69361zm49.35876,-14.36259l-17.93945,0l0,28.73437l18.30725,0l0,-6.52845l-10.99722,0l0,-5.04805l9.76509,0l0,-6.52845l-9.76509,0l0,-4.06419l10.62942,0l0,-6.56523zm22.39901,18.55551c7.26405,-4.92852 5.21357,-18.50954 -6.07789,-18.55551l-12.59715,0l0,28.73437l7.3468,0l0,-8.4594l3.81593,0l4.92852,8.4594l8.90076,0l-0.68963,-1.06662l-5.62734,-9.11224zm-6.07789,-4.80899l-5.25035,0l0,-7.18129c1.71947,0 3.53088,-0.03678 5.25035,0c4.19292,0.04597 3.98143,7.18129 0,7.18129zm20.25658,-7.18129l0,22.16914l7.26405,0l0,-22.16914l7.01578,0l0,-6.56523l-21.34159,0l0,6.56523l7.06176,0zm40.60511,21.10252l-12.96495,-28.03555l-3.16307,0l-12.92817,28.03555l-0.54251,1.06662l7.733,0l1.68268,-3.61364l11.31904,0l8.86398,2.54702zm-11.24548,-8.8272l-6.55603,0l3.23664,-7.54909l3.31939,7.54909z" fill="#2D5173" id="svg_3"/>
  <polygon  class="fil1" points="180.43807917833328,25.73906135559082 182.13914424180984,29.371095657348633 189.85378962755203,29.371095657348633 188.15269404649734,25.73906135559082 " id="svg_4"/>
  <path  class="fil1" d="m33.2997,6.733l-1.17696,-5.64573l-6.51006,0l1.17696,5.64573l6.51006,0zm-6.2434,1.2873l4.54233,21.79215l6.50086,0l-4.53313,-21.79215l-6.51006,0z" id="svg_5"/>
 </g>
</svg>